<mxfile host="app.diagrams.net" agent="Mozilla/5.0 (Windows NT 10.0; Win64; x64) AppleWebKit/537.36 (KHTML, like Gecko) Chrome/129.0.0.0 Safari/537.36" version="24.7.14">
  <diagram name="Page-1" id="MSqYXXy30V1sFn1s4_8o">
    <mxGraphModel dx="636" dy="341" grid="1" gridSize="10" guides="1" tooltips="1" connect="1" arrows="1" fold="1" page="1" pageScale="1" pageWidth="827" pageHeight="1169" math="0" shadow="0">
      <root>
        <mxCell id="0" />
        <mxCell id="1" parent="0" />
        <mxCell id="zOK9kGsAJfB9ZcYWZ8Sq-1" value="" style="shape=waypoint;sketch=0;fillStyle=solid;size=6;pointerEvents=1;points=[];fillColor=none;resizable=0;rotatable=0;perimeter=centerPerimeter;snapToPoint=1;strokeWidth=5;" vertex="1" parent="1">
          <mxGeometry x="240" y="250" width="20" height="20" as="geometry" />
        </mxCell>
        <mxCell id="zOK9kGsAJfB9ZcYWZ8Sq-4" value="" style="endArrow=classic;html=1;rounded=0;exitX=-0.074;exitY=0.84;exitDx=0;exitDy=0;exitPerimeter=0;" edge="1" parent="1" source="zOK9kGsAJfB9ZcYWZ8Sq-1" target="zOK9kGsAJfB9ZcYWZ8Sq-5">
          <mxGeometry width="50" height="50" relative="1" as="geometry">
            <mxPoint x="410" y="332.5" as="sourcePoint" />
            <mxPoint x="340" y="252.5" as="targetPoint" />
          </mxGeometry>
        </mxCell>
        <mxCell id="zOK9kGsAJfB9ZcYWZ8Sq-7" style="edgeStyle=orthogonalEdgeStyle;rounded=0;orthogonalLoop=1;jettySize=auto;html=1;entryX=0;entryY=0.5;entryDx=0;entryDy=0;" edge="1" parent="1" source="zOK9kGsAJfB9ZcYWZ8Sq-5" target="zOK9kGsAJfB9ZcYWZ8Sq-6">
          <mxGeometry relative="1" as="geometry" />
        </mxCell>
        <mxCell id="zOK9kGsAJfB9ZcYWZ8Sq-5" value="&lt;div style=&quot;&quot;&gt;&lt;b style=&quot;&quot;&gt;&lt;font face=&quot;Verdana&quot; style=&quot;font-size: 6px;&quot;&gt;Usuário acessa a opção de visualizar ordens&lt;/font&gt;&lt;/b&gt;&lt;br&gt;&lt;/div&gt;" style="rounded=1;whiteSpace=wrap;html=1;" vertex="1" parent="1">
          <mxGeometry x="300" y="241.88" width="90" height="36.25" as="geometry" />
        </mxCell>
        <mxCell id="zOK9kGsAJfB9ZcYWZ8Sq-9" style="edgeStyle=orthogonalEdgeStyle;rounded=0;orthogonalLoop=1;jettySize=auto;html=1;entryX=0;entryY=0.5;entryDx=0;entryDy=0;" edge="1" parent="1" source="zOK9kGsAJfB9ZcYWZ8Sq-6" target="zOK9kGsAJfB9ZcYWZ8Sq-8">
          <mxGeometry relative="1" as="geometry" />
        </mxCell>
        <mxCell id="zOK9kGsAJfB9ZcYWZ8Sq-6" value="&lt;div style=&quot;&quot;&gt;&lt;span style=&quot;font-size: 7px;&quot;&gt;&lt;b&gt;Tela de visualizar ordens&lt;/b&gt;&lt;/span&gt;&lt;br&gt;&lt;/div&gt;" style="rounded=1;whiteSpace=wrap;html=1;" vertex="1" parent="1">
          <mxGeometry x="430" y="240" width="80" height="40" as="geometry" />
        </mxCell>
        <mxCell id="zOK9kGsAJfB9ZcYWZ8Sq-37" style="edgeStyle=orthogonalEdgeStyle;rounded=0;orthogonalLoop=1;jettySize=auto;html=1;entryX=0.5;entryY=0;entryDx=0;entryDy=0;" edge="1" parent="1" source="zOK9kGsAJfB9ZcYWZ8Sq-8" target="zOK9kGsAJfB9ZcYWZ8Sq-10">
          <mxGeometry relative="1" as="geometry" />
        </mxCell>
        <mxCell id="zOK9kGsAJfB9ZcYWZ8Sq-8" value="&lt;span style=&quot;font-size: 7px;&quot;&gt;&lt;b&gt;Sistema exibe lista de ordens de compra&lt;/b&gt;&lt;/span&gt;" style="rounded=1;whiteSpace=wrap;html=1;" vertex="1" parent="1">
          <mxGeometry x="560" y="245" width="90" height="30" as="geometry" />
        </mxCell>
        <mxCell id="zOK9kGsAJfB9ZcYWZ8Sq-14" value="&lt;font size=&quot;1&quot; style=&quot;&quot;&gt;&lt;b style=&quot;font-size: 9px;&quot;&gt;Sim&lt;/b&gt;&lt;/font&gt;" style="edgeStyle=orthogonalEdgeStyle;rounded=0;orthogonalLoop=1;jettySize=auto;html=1;entryX=1;entryY=0.5;entryDx=0;entryDy=0;" edge="1" parent="1" source="zOK9kGsAJfB9ZcYWZ8Sq-10" target="zOK9kGsAJfB9ZcYWZ8Sq-12">
          <mxGeometry x="-0.3333" y="-12" relative="1" as="geometry">
            <mxPoint as="offset" />
          </mxGeometry>
        </mxCell>
        <mxCell id="zOK9kGsAJfB9ZcYWZ8Sq-20" style="edgeStyle=orthogonalEdgeStyle;rounded=0;orthogonalLoop=1;jettySize=auto;html=1;entryX=0.5;entryY=0;entryDx=0;entryDy=0;" edge="1" parent="1" source="zOK9kGsAJfB9ZcYWZ8Sq-10" target="zOK9kGsAJfB9ZcYWZ8Sq-19">
          <mxGeometry relative="1" as="geometry" />
        </mxCell>
        <mxCell id="zOK9kGsAJfB9ZcYWZ8Sq-10" value="" style="rhombus;whiteSpace=wrap;html=1;" vertex="1" parent="1">
          <mxGeometry x="565" y="332.5" width="80" height="40" as="geometry" />
        </mxCell>
        <mxCell id="zOK9kGsAJfB9ZcYWZ8Sq-13" style="edgeStyle=orthogonalEdgeStyle;rounded=0;orthogonalLoop=1;jettySize=auto;html=1;entryX=0.5;entryY=1;entryDx=0;entryDy=0;" edge="1" parent="1" source="zOK9kGsAJfB9ZcYWZ8Sq-12" target="zOK9kGsAJfB9ZcYWZ8Sq-6">
          <mxGeometry relative="1" as="geometry" />
        </mxCell>
        <mxCell id="zOK9kGsAJfB9ZcYWZ8Sq-12" value="&lt;font style=&quot;font-size: 7px;&quot;&gt;&lt;b&gt;&amp;nbsp;Sistema exibe mensagem de erro e pede para tentar mais tarde.&lt;/b&gt;&lt;/font&gt;" style="rounded=1;whiteSpace=wrap;html=1;" vertex="1" parent="1">
          <mxGeometry x="420" y="330" width="100" height="45" as="geometry" />
        </mxCell>
        <mxCell id="zOK9kGsAJfB9ZcYWZ8Sq-15" value="&lt;span style=&quot;text-wrap: wrap;&quot;&gt;&lt;font style=&quot;font-size: 9px;&quot;&gt;&lt;b&gt;Erro na exibição dos dados?&lt;/b&gt;&lt;/font&gt;&lt;/span&gt;" style="text;html=1;align=center;verticalAlign=middle;resizable=0;points=[];autosize=1;strokeColor=none;fillColor=none;" vertex="1" parent="1">
          <mxGeometry x="605" y="337.5" width="150" height="30" as="geometry" />
        </mxCell>
        <mxCell id="zOK9kGsAJfB9ZcYWZ8Sq-27" style="edgeStyle=orthogonalEdgeStyle;rounded=0;orthogonalLoop=1;jettySize=auto;html=1;" edge="1" parent="1" source="zOK9kGsAJfB9ZcYWZ8Sq-19" target="zOK9kGsAJfB9ZcYWZ8Sq-21">
          <mxGeometry relative="1" as="geometry" />
        </mxCell>
        <mxCell id="zOK9kGsAJfB9ZcYWZ8Sq-19" value="&lt;div style=&quot;&quot;&gt;&lt;font face=&quot;-apple-system, BlinkMacSystemFont, Segoe UI, Noto Sans, Helvetica, Arial, sans-serif, Apple Color Emoji, Segoe UI Emoji&quot;&gt;&lt;span style=&quot;font-size: 7px;&quot;&gt;&lt;b&gt;Sistema mostra status das OC&lt;/b&gt;&lt;/span&gt;&lt;/font&gt;&lt;br&gt;&lt;/div&gt;" style="rounded=1;whiteSpace=wrap;html=1;" vertex="1" parent="1">
          <mxGeometry x="560" y="402.5" width="90" height="40" as="geometry" />
        </mxCell>
        <mxCell id="zOK9kGsAJfB9ZcYWZ8Sq-42" style="edgeStyle=orthogonalEdgeStyle;rounded=0;orthogonalLoop=1;jettySize=auto;html=1;entryX=1;entryY=0.5;entryDx=0;entryDy=0;" edge="1" parent="1" source="zOK9kGsAJfB9ZcYWZ8Sq-21" target="zOK9kGsAJfB9ZcYWZ8Sq-33">
          <mxGeometry relative="1" as="geometry" />
        </mxCell>
        <mxCell id="zOK9kGsAJfB9ZcYWZ8Sq-21" value="&lt;div style=&quot;&quot;&gt;&lt;font face=&quot;-apple-system, BlinkMacSystemFont, Segoe UI, Noto Sans, Helvetica, Arial, sans-serif, Apple Color Emoji, Segoe UI Emoji&quot;&gt;&lt;span style=&quot;font-size: 6px;&quot;&gt;&lt;b&gt;Sistema permite consulta do histórico de OC&lt;/b&gt;&lt;/span&gt;&lt;/font&gt;&lt;br&gt;&lt;/div&gt;" style="rounded=1;whiteSpace=wrap;html=1;" vertex="1" parent="1">
          <mxGeometry x="425" y="402.5" width="90" height="40" as="geometry" />
        </mxCell>
        <mxCell id="zOK9kGsAJfB9ZcYWZ8Sq-32" style="edgeStyle=orthogonalEdgeStyle;rounded=0;orthogonalLoop=1;jettySize=auto;html=1;entryX=0.5;entryY=0;entryDx=0;entryDy=0;" edge="1" parent="1">
          <mxGeometry relative="1" as="geometry">
            <mxPoint x="360.0256410256411" y="412.49" as="sourcePoint" />
            <mxPoint x="360" y="432.49" as="targetPoint" />
          </mxGeometry>
        </mxCell>
        <mxCell id="zOK9kGsAJfB9ZcYWZ8Sq-33" value="" style="ellipse;whiteSpace=wrap;html=1;" vertex="1" parent="1">
          <mxGeometry x="350" y="412.52" width="20" height="20" as="geometry" />
        </mxCell>
        <mxCell id="zOK9kGsAJfB9ZcYWZ8Sq-34" value="" style="ellipse;whiteSpace=wrap;html=1;fillStyle=solid;fillColor=#000000;" vertex="1" parent="1">
          <mxGeometry x="355" y="417.52" width="10" height="10" as="geometry" />
        </mxCell>
      </root>
    </mxGraphModel>
  </diagram>
</mxfile>
